<?xml version="1.0" encoding="utf-8"?>
<!DOCTYPE svg PUBLIC "-//W3C//DTD SVG 1.1//EN" "http://www.w3.org/Graphics/SVG/1.1/DTD/svg11.dtd">
<svg version="1.1" id="Layer_1" xmlns="http://www.w3.org/2000/svg" xmlns:xlink="http://www.w3.org/1999/xlink" x="0px" y="0px"
width="1073px" height="1073px" viewBox="0 0 1073 1073" enable-background="new 0 0 1073 1073" xml:space="preserve">
<rect x="0" y="0" width="1073" height="1073" fill="rgb(255,255,255)" /><g transform="translate(74,74)"><g><defs>
    <radialGradient id="grad">
    <stop offset="5%" stop-color="rgb(194,12,12)" />
    <stop offset="95%" stop-color="rgb(2,119,189)" />
    </radialGradient>
<mask id="gmask"><g>
<g transform="translate(296,0) scale(0.37,0.37)"><g transform="" style="fill: rgb(255, 255, 255);">
<g>
	<circle cx="50" cy="50" r="30"/>
</g>
</g></g><g transform="translate(407,0) scale(0.37,0.37)"><g transform="" style="fill: rgb(255, 255, 255);">
<g>
	<circle cx="50" cy="50" r="30"/>
</g>
</g></g><g transform="translate(444,0) scale(0.37,0.37)"><g transform="" style="fill: rgb(255, 255, 255);">
<g>
	<circle cx="50" cy="50" r="30"/>
</g>
</g></g><g transform="translate(518,0) scale(0.37,0.37)"><g transform="" style="fill: rgb(255, 255, 255);">
<g>
	<circle cx="50" cy="50" r="30"/>
</g>
</g></g><g transform="translate(592,0) scale(0.37,0.37)"><g transform="" style="fill: rgb(255, 255, 255);">
<g>
	<circle cx="50" cy="50" r="30"/>
</g>
</g></g><g transform="translate(296,37) scale(0.37,0.37)"><g transform="" style="fill: rgb(255, 255, 255);">
<g>
	<circle cx="50" cy="50" r="30"/>
</g>
</g></g><g transform="translate(407,37) scale(0.37,0.37)"><g transform="" style="fill: rgb(255, 255, 255);">
<g>
	<circle cx="50" cy="50" r="30"/>
</g>
</g></g><g transform="translate(444,37) scale(0.37,0.37)"><g transform="" style="fill: rgb(255, 255, 255);">
<g>
	<circle cx="50" cy="50" r="30"/>
</g>
</g></g><g transform="translate(481,37) scale(0.37,0.37)"><g transform="" style="fill: rgb(255, 255, 255);">
<g>
	<circle cx="50" cy="50" r="30"/>
</g>
</g></g><g transform="translate(518,37) scale(0.37,0.37)"><g transform="" style="fill: rgb(255, 255, 255);">
<g>
	<circle cx="50" cy="50" r="30"/>
</g>
</g></g><g transform="translate(592,37) scale(0.37,0.37)"><g transform="" style="fill: rgb(255, 255, 255);">
<g>
	<circle cx="50" cy="50" r="30"/>
</g>
</g></g><g transform="translate(333,74) scale(0.37,0.37)"><g transform="" style="fill: rgb(255, 255, 255);">
<g>
	<circle cx="50" cy="50" r="30"/>
</g>
</g></g><g transform="translate(370,74) scale(0.37,0.37)"><g transform="" style="fill: rgb(255, 255, 255);">
<g>
	<circle cx="50" cy="50" r="30"/>
</g>
</g></g><g transform="translate(444,74) scale(0.37,0.37)"><g transform="" style="fill: rgb(255, 255, 255);">
<g>
	<circle cx="50" cy="50" r="30"/>
</g>
</g></g><g transform="translate(481,74) scale(0.37,0.37)"><g transform="" style="fill: rgb(255, 255, 255);">
<g>
	<circle cx="50" cy="50" r="30"/>
</g>
</g></g><g transform="translate(592,74) scale(0.37,0.37)"><g transform="" style="fill: rgb(255, 255, 255);">
<g>
	<circle cx="50" cy="50" r="30"/>
</g>
</g></g><g transform="translate(296,111) scale(0.37,0.37)"><g transform="" style="fill: rgb(255, 255, 255);">
<g>
	<circle cx="50" cy="50" r="30"/>
</g>
</g></g><g transform="translate(407,111) scale(0.37,0.37)"><g transform="" style="fill: rgb(255, 255, 255);">
<g>
	<circle cx="50" cy="50" r="30"/>
</g>
</g></g><g transform="translate(444,111) scale(0.37,0.37)"><g transform="" style="fill: rgb(255, 255, 255);">
<g>
	<circle cx="50" cy="50" r="30"/>
</g>
</g></g><g transform="translate(481,111) scale(0.37,0.37)"><g transform="" style="fill: rgb(255, 255, 255);">
<g>
	<circle cx="50" cy="50" r="30"/>
</g>
</g></g><g transform="translate(555,111) scale(0.37,0.37)"><g transform="" style="fill: rgb(255, 255, 255);">
<g>
	<circle cx="50" cy="50" r="30"/>
</g>
</g></g><g transform="translate(592,111) scale(0.37,0.37)"><g transform="" style="fill: rgb(255, 255, 255);">
<g>
	<circle cx="50" cy="50" r="30"/>
</g>
</g></g><g transform="translate(333,148) scale(0.37,0.37)"><g transform="" style="fill: rgb(255, 255, 255);">
<g>
	<circle cx="50" cy="50" r="30"/>
</g>
</g></g><g transform="translate(407,148) scale(0.37,0.37)"><g transform="" style="fill: rgb(255, 255, 255);">
<g>
	<circle cx="50" cy="50" r="30"/>
</g>
</g></g><g transform="translate(481,148) scale(0.37,0.37)"><g transform="" style="fill: rgb(255, 255, 255);">
<g>
	<circle cx="50" cy="50" r="30"/>
</g>
</g></g><g transform="translate(518,148) scale(0.37,0.37)"><g transform="" style="fill: rgb(255, 255, 255);">
<g>
	<circle cx="50" cy="50" r="30"/>
</g>
</g></g><g transform="translate(555,148) scale(0.37,0.37)"><g transform="" style="fill: rgb(255, 255, 255);">
<g>
	<circle cx="50" cy="50" r="30"/>
</g>
</g></g><g transform="translate(592,148) scale(0.37,0.37)"><g transform="" style="fill: rgb(255, 255, 255);">
<g>
	<circle cx="50" cy="50" r="30"/>
</g>
</g></g><g transform="translate(370,185) scale(0.37,0.37)"><g transform="" style="fill: rgb(255, 255, 255);">
<g>
	<circle cx="50" cy="50" r="30"/>
</g>
</g></g><g transform="translate(518,185) scale(0.37,0.37)"><g transform="" style="fill: rgb(255, 255, 255);">
<g>
	<circle cx="50" cy="50" r="30"/>
</g>
</g></g><g transform="translate(296,222) scale(0.37,0.37)"><g transform="" style="fill: rgb(255, 255, 255);">
<g>
	<circle cx="50" cy="50" r="30"/>
</g>
</g></g><g transform="translate(370,222) scale(0.37,0.37)"><g transform="" style="fill: rgb(255, 255, 255);">
<g>
	<circle cx="50" cy="50" r="30"/>
</g>
</g></g><g transform="translate(444,222) scale(0.37,0.37)"><g transform="" style="fill: rgb(255, 255, 255);">
<g>
	<circle cx="50" cy="50" r="30"/>
</g>
</g></g><g transform="translate(518,222) scale(0.37,0.37)"><g transform="" style="fill: rgb(255, 255, 255);">
<g>
	<circle cx="50" cy="50" r="30"/>
</g>
</g></g><g transform="translate(592,222) scale(0.37,0.37)"><g transform="" style="fill: rgb(255, 255, 255);">
<g>
	<circle cx="50" cy="50" r="30"/>
</g>
</g></g><g transform="translate(296,259) scale(0.37,0.37)"><g transform="" style="fill: rgb(255, 255, 255);">
<g>
	<circle cx="50" cy="50" r="30"/>
</g>
</g></g><g transform="translate(407,259) scale(0.37,0.37)"><g transform="" style="fill: rgb(255, 255, 255);">
<g>
	<circle cx="50" cy="50" r="30"/>
</g>
</g></g><g transform="translate(444,259) scale(0.37,0.37)"><g transform="" style="fill: rgb(255, 255, 255);">
<g>
	<circle cx="50" cy="50" r="30"/>
</g>
</g></g><g transform="translate(518,259) scale(0.37,0.37)"><g transform="" style="fill: rgb(255, 255, 255);">
<g>
	<circle cx="50" cy="50" r="30"/>
</g>
</g></g><g transform="translate(555,259) scale(0.37,0.37)"><g transform="" style="fill: rgb(255, 255, 255);">
<g>
	<circle cx="50" cy="50" r="30"/>
</g>
</g></g><g transform="translate(0,296) scale(0.37,0.37)"><g transform="" style="fill: rgb(255, 255, 255);">
<g>
	<circle cx="50" cy="50" r="30"/>
</g>
</g></g><g transform="translate(74,296) scale(0.37,0.37)"><g transform="" style="fill: rgb(255, 255, 255);">
<g>
	<circle cx="50" cy="50" r="30"/>
</g>
</g></g><g transform="translate(111,296) scale(0.37,0.37)"><g transform="" style="fill: rgb(255, 255, 255);">
<g>
	<circle cx="50" cy="50" r="30"/>
</g>
</g></g><g transform="translate(185,296) scale(0.37,0.37)"><g transform="" style="fill: rgb(255, 255, 255);">
<g>
	<circle cx="50" cy="50" r="30"/>
</g>
</g></g><g transform="translate(222,296) scale(0.37,0.37)"><g transform="" style="fill: rgb(255, 255, 255);">
<g>
	<circle cx="50" cy="50" r="30"/>
</g>
</g></g><g transform="translate(259,296) scale(0.37,0.37)"><g transform="" style="fill: rgb(255, 255, 255);">
<g>
	<circle cx="50" cy="50" r="30"/>
</g>
</g></g><g transform="translate(333,296) scale(0.37,0.37)"><g transform="" style="fill: rgb(255, 255, 255);">
<g>
	<circle cx="50" cy="50" r="30"/>
</g>
</g></g><g transform="translate(407,296) scale(0.37,0.37)"><g transform="" style="fill: rgb(255, 255, 255);">
<g>
	<circle cx="50" cy="50" r="30"/>
</g>
</g></g><g transform="translate(518,296) scale(0.37,0.37)"><g transform="" style="fill: rgb(255, 255, 255);">
<g>
	<circle cx="50" cy="50" r="30"/>
</g>
</g></g><g transform="translate(555,296) scale(0.37,0.37)"><g transform="" style="fill: rgb(255, 255, 255);">
<g>
	<circle cx="50" cy="50" r="30"/>
</g>
</g></g><g transform="translate(592,296) scale(0.37,0.37)"><g transform="" style="fill: rgb(255, 255, 255);">
<g>
	<circle cx="50" cy="50" r="30"/>
</g>
</g></g><g transform="translate(666,296) scale(0.37,0.37)"><g transform="" style="fill: rgb(255, 255, 255);">
<g>
	<circle cx="50" cy="50" r="30"/>
</g>
</g></g><g transform="translate(777,296) scale(0.37,0.37)"><g transform="" style="fill: rgb(255, 255, 255);">
<g>
	<circle cx="50" cy="50" r="30"/>
</g>
</g></g><g transform="translate(851,296) scale(0.37,0.37)"><g transform="" style="fill: rgb(255, 255, 255);">
<g>
	<circle cx="50" cy="50" r="30"/>
</g>
</g></g><g transform="translate(888,296) scale(0.37,0.37)"><g transform="" style="fill: rgb(255, 255, 255);">
<g>
	<circle cx="50" cy="50" r="30"/>
</g>
</g></g><g transform="translate(37,333) scale(0.37,0.37)"><g transform="" style="fill: rgb(255, 255, 255);">
<g>
	<circle cx="50" cy="50" r="30"/>
</g>
</g></g><g transform="translate(259,333) scale(0.37,0.37)"><g transform="" style="fill: rgb(255, 255, 255);">
<g>
	<circle cx="50" cy="50" r="30"/>
</g>
</g></g><g transform="translate(333,333) scale(0.37,0.37)"><g transform="" style="fill: rgb(255, 255, 255);">
<g>
	<circle cx="50" cy="50" r="30"/>
</g>
</g></g><g transform="translate(444,333) scale(0.37,0.37)"><g transform="" style="fill: rgb(255, 255, 255);">
<g>
	<circle cx="50" cy="50" r="30"/>
</g>
</g></g><g transform="translate(592,333) scale(0.37,0.37)"><g transform="" style="fill: rgb(255, 255, 255);">
<g>
	<circle cx="50" cy="50" r="30"/>
</g>
</g></g><g transform="translate(703,333) scale(0.37,0.37)"><g transform="" style="fill: rgb(255, 255, 255);">
<g>
	<circle cx="50" cy="50" r="30"/>
</g>
</g></g><g transform="translate(851,333) scale(0.37,0.37)"><g transform="" style="fill: rgb(255, 255, 255);">
<g>
	<circle cx="50" cy="50" r="30"/>
</g>
</g></g><g transform="translate(37,370) scale(0.37,0.37)"><g transform="" style="fill: rgb(255, 255, 255);">
<g>
	<circle cx="50" cy="50" r="30"/>
</g>
</g></g><g transform="translate(111,370) scale(0.37,0.37)"><g transform="" style="fill: rgb(255, 255, 255);">
<g>
	<circle cx="50" cy="50" r="30"/>
</g>
</g></g><g transform="translate(148,370) scale(0.37,0.37)"><g transform="" style="fill: rgb(255, 255, 255);">
<g>
	<circle cx="50" cy="50" r="30"/>
</g>
</g></g><g transform="translate(222,370) scale(0.37,0.37)"><g transform="" style="fill: rgb(255, 255, 255);">
<g>
	<circle cx="50" cy="50" r="30"/>
</g>
</g></g><g transform="translate(296,370) scale(0.37,0.37)"><g transform="" style="fill: rgb(255, 255, 255);">
<g>
	<circle cx="50" cy="50" r="30"/>
</g>
</g></g><g transform="translate(333,370) scale(0.37,0.37)"><g transform="" style="fill: rgb(255, 255, 255);">
<g>
	<circle cx="50" cy="50" r="30"/>
</g>
</g></g><g transform="translate(370,370) scale(0.37,0.37)"><g transform="" style="fill: rgb(255, 255, 255);">
<g>
	<circle cx="50" cy="50" r="30"/>
</g>
</g></g><g transform="translate(444,370) scale(0.37,0.37)"><g transform="" style="fill: rgb(255, 255, 255);">
<g>
	<circle cx="50" cy="50" r="30"/>
</g>
</g></g><g transform="translate(481,370) scale(0.37,0.37)"><g transform="" style="fill: rgb(255, 255, 255);">
<g>
	<circle cx="50" cy="50" r="30"/>
</g>
</g></g><g transform="translate(518,370) scale(0.37,0.37)"><g transform="" style="fill: rgb(255, 255, 255);">
<g>
	<circle cx="50" cy="50" r="30"/>
</g>
</g></g><g transform="translate(592,370) scale(0.37,0.37)"><g transform="" style="fill: rgb(255, 255, 255);">
<g>
	<circle cx="50" cy="50" r="30"/>
</g>
</g></g><g transform="translate(666,370) scale(0.37,0.37)"><g transform="" style="fill: rgb(255, 255, 255);">
<g>
	<circle cx="50" cy="50" r="30"/>
</g>
</g></g><g transform="translate(703,370) scale(0.37,0.37)"><g transform="" style="fill: rgb(255, 255, 255);">
<g>
	<circle cx="50" cy="50" r="30"/>
</g>
</g></g><g transform="translate(0,407) scale(0.37,0.37)"><g transform="" style="fill: rgb(255, 255, 255);">
<g>
	<circle cx="50" cy="50" r="30"/>
</g>
</g></g><g transform="translate(111,407) scale(0.37,0.37)"><g transform="" style="fill: rgb(255, 255, 255);">
<g>
	<circle cx="50" cy="50" r="30"/>
</g>
</g></g><g transform="translate(185,407) scale(0.37,0.37)"><g transform="" style="fill: rgb(255, 255, 255);">
<g>
	<circle cx="50" cy="50" r="30"/>
</g>
</g></g><g transform="translate(259,407) scale(0.37,0.37)"><g transform="" style="fill: rgb(255, 255, 255);">
<g>
	<circle cx="50" cy="50" r="30"/>
</g>
</g></g><g transform="translate(296,407) scale(0.37,0.37)"><g transform="" style="fill: rgb(255, 255, 255);">
<g>
	<circle cx="50" cy="50" r="30"/>
</g>
</g></g><g transform="translate(333,407) scale(0.37,0.37)"><g transform="" style="fill: rgb(255, 255, 255);">
<g>
	<circle cx="50" cy="50" r="30"/>
</g>
</g></g><g transform="translate(370,407) scale(0.37,0.37)"><g transform="" style="fill: rgb(255, 255, 255);">
<g>
	<circle cx="50" cy="50" r="30"/>
</g>
</g></g><g transform="translate(481,407) scale(0.37,0.37)"><g transform="" style="fill: rgb(255, 255, 255);">
<g>
	<circle cx="50" cy="50" r="30"/>
</g>
</g></g><g transform="translate(518,407) scale(0.37,0.37)"><g transform="" style="fill: rgb(255, 255, 255);">
<g>
	<circle cx="50" cy="50" r="30"/>
</g>
</g></g><g transform="translate(555,407) scale(0.37,0.37)"><g transform="" style="fill: rgb(255, 255, 255);">
<g>
	<circle cx="50" cy="50" r="30"/>
</g>
</g></g><g transform="translate(592,407) scale(0.37,0.37)"><g transform="" style="fill: rgb(255, 255, 255);">
<g>
	<circle cx="50" cy="50" r="30"/>
</g>
</g></g><g transform="translate(666,407) scale(0.37,0.37)"><g transform="" style="fill: rgb(255, 255, 255);">
<g>
	<circle cx="50" cy="50" r="30"/>
</g>
</g></g><g transform="translate(740,407) scale(0.37,0.37)"><g transform="" style="fill: rgb(255, 255, 255);">
<g>
	<circle cx="50" cy="50" r="30"/>
</g>
</g></g><g transform="translate(777,407) scale(0.37,0.37)"><g transform="" style="fill: rgb(255, 255, 255);">
<g>
	<circle cx="50" cy="50" r="30"/>
</g>
</g></g><g transform="translate(814,407) scale(0.37,0.37)"><g transform="" style="fill: rgb(255, 255, 255);">
<g>
	<circle cx="50" cy="50" r="30"/>
</g>
</g></g><g transform="translate(37,444) scale(0.37,0.37)"><g transform="" style="fill: rgb(255, 255, 255);">
<g>
	<circle cx="50" cy="50" r="30"/>
</g>
</g></g><g transform="translate(74,444) scale(0.37,0.37)"><g transform="" style="fill: rgb(255, 255, 255);">
<g>
	<circle cx="50" cy="50" r="30"/>
</g>
</g></g><g transform="translate(222,444) scale(0.37,0.37)"><g transform="" style="fill: rgb(255, 255, 255);">
<g>
	<circle cx="50" cy="50" r="30"/>
</g>
</g></g><g transform="translate(370,444) scale(0.37,0.37)"><g transform="" style="fill: rgb(255, 255, 255);">
<g>
	<circle cx="50" cy="50" r="30"/>
</g>
</g></g><g transform="translate(481,444) scale(0.37,0.37)"><g transform="" style="fill: rgb(255, 255, 255);">
<g>
	<circle cx="50" cy="50" r="30"/>
</g>
</g></g><g transform="translate(518,444) scale(0.37,0.37)"><g transform="" style="fill: rgb(255, 255, 255);">
<g>
	<circle cx="50" cy="50" r="30"/>
</g>
</g></g><g transform="translate(555,444) scale(0.37,0.37)"><g transform="" style="fill: rgb(255, 255, 255);">
<g>
	<circle cx="50" cy="50" r="30"/>
</g>
</g></g><g transform="translate(629,444) scale(0.37,0.37)"><g transform="" style="fill: rgb(255, 255, 255);">
<g>
	<circle cx="50" cy="50" r="30"/>
</g>
</g></g><g transform="translate(666,444) scale(0.37,0.37)"><g transform="" style="fill: rgb(255, 255, 255);">
<g>
	<circle cx="50" cy="50" r="30"/>
</g>
</g></g><g transform="translate(740,444) scale(0.37,0.37)"><g transform="" style="fill: rgb(255, 255, 255);">
<g>
	<circle cx="50" cy="50" r="30"/>
</g>
</g></g><g transform="translate(814,444) scale(0.37,0.37)"><g transform="" style="fill: rgb(255, 255, 255);">
<g>
	<circle cx="50" cy="50" r="30"/>
</g>
</g></g><g transform="translate(851,444) scale(0.37,0.37)"><g transform="" style="fill: rgb(255, 255, 255);">
<g>
	<circle cx="50" cy="50" r="30"/>
</g>
</g></g><g transform="translate(888,444) scale(0.37,0.37)"><g transform="" style="fill: rgb(255, 255, 255);">
<g>
	<circle cx="50" cy="50" r="30"/>
</g>
</g></g><g transform="translate(37,481) scale(0.37,0.37)"><g transform="" style="fill: rgb(255, 255, 255);">
<g>
	<circle cx="50" cy="50" r="30"/>
</g>
</g></g><g transform="translate(111,481) scale(0.37,0.37)"><g transform="" style="fill: rgb(255, 255, 255);">
<g>
	<circle cx="50" cy="50" r="30"/>
</g>
</g></g><g transform="translate(333,481) scale(0.37,0.37)"><g transform="" style="fill: rgb(255, 255, 255);">
<g>
	<circle cx="50" cy="50" r="30"/>
</g>
</g></g><g transform="translate(370,481) scale(0.37,0.37)"><g transform="" style="fill: rgb(255, 255, 255);">
<g>
	<circle cx="50" cy="50" r="30"/>
</g>
</g></g><g transform="translate(407,481) scale(0.37,0.37)"><g transform="" style="fill: rgb(255, 255, 255);">
<g>
	<circle cx="50" cy="50" r="30"/>
</g>
</g></g><g transform="translate(481,481) scale(0.37,0.37)"><g transform="" style="fill: rgb(255, 255, 255);">
<g>
	<circle cx="50" cy="50" r="30"/>
</g>
</g></g><g transform="translate(518,481) scale(0.37,0.37)"><g transform="" style="fill: rgb(255, 255, 255);">
<g>
	<circle cx="50" cy="50" r="30"/>
</g>
</g></g><g transform="translate(555,481) scale(0.37,0.37)"><g transform="" style="fill: rgb(255, 255, 255);">
<g>
	<circle cx="50" cy="50" r="30"/>
</g>
</g></g><g transform="translate(592,481) scale(0.37,0.37)"><g transform="" style="fill: rgb(255, 255, 255);">
<g>
	<circle cx="50" cy="50" r="30"/>
</g>
</g></g><g transform="translate(629,481) scale(0.37,0.37)"><g transform="" style="fill: rgb(255, 255, 255);">
<g>
	<circle cx="50" cy="50" r="30"/>
</g>
</g></g><g transform="translate(666,481) scale(0.37,0.37)"><g transform="" style="fill: rgb(255, 255, 255);">
<g>
	<circle cx="50" cy="50" r="30"/>
</g>
</g></g><g transform="translate(703,481) scale(0.37,0.37)"><g transform="" style="fill: rgb(255, 255, 255);">
<g>
	<circle cx="50" cy="50" r="30"/>
</g>
</g></g><g transform="translate(740,481) scale(0.37,0.37)"><g transform="" style="fill: rgb(255, 255, 255);">
<g>
	<circle cx="50" cy="50" r="30"/>
</g>
</g></g><g transform="translate(888,481) scale(0.37,0.37)"><g transform="" style="fill: rgb(255, 255, 255);">
<g>
	<circle cx="50" cy="50" r="30"/>
</g>
</g></g><g transform="translate(37,518) scale(0.37,0.37)"><g transform="" style="fill: rgb(255, 255, 255);">
<g>
	<circle cx="50" cy="50" r="30"/>
</g>
</g></g><g transform="translate(74,518) scale(0.37,0.37)"><g transform="" style="fill: rgb(255, 255, 255);">
<g>
	<circle cx="50" cy="50" r="30"/>
</g>
</g></g><g transform="translate(111,518) scale(0.37,0.37)"><g transform="" style="fill: rgb(255, 255, 255);">
<g>
	<circle cx="50" cy="50" r="30"/>
</g>
</g></g><g transform="translate(185,518) scale(0.37,0.37)"><g transform="" style="fill: rgb(255, 255, 255);">
<g>
	<circle cx="50" cy="50" r="30"/>
</g>
</g></g><g transform="translate(222,518) scale(0.37,0.37)"><g transform="" style="fill: rgb(255, 255, 255);">
<g>
	<circle cx="50" cy="50" r="30"/>
</g>
</g></g><g transform="translate(259,518) scale(0.37,0.37)"><g transform="" style="fill: rgb(255, 255, 255);">
<g>
	<circle cx="50" cy="50" r="30"/>
</g>
</g></g><g transform="translate(296,518) scale(0.37,0.37)"><g transform="" style="fill: rgb(255, 255, 255);">
<g>
	<circle cx="50" cy="50" r="30"/>
</g>
</g></g><g transform="translate(370,518) scale(0.37,0.37)"><g transform="" style="fill: rgb(255, 255, 255);">
<g>
	<circle cx="50" cy="50" r="30"/>
</g>
</g></g><g transform="translate(444,518) scale(0.37,0.37)"><g transform="" style="fill: rgb(255, 255, 255);">
<g>
	<circle cx="50" cy="50" r="30"/>
</g>
</g></g><g transform="translate(518,518) scale(0.37,0.37)"><g transform="" style="fill: rgb(255, 255, 255);">
<g>
	<circle cx="50" cy="50" r="30"/>
</g>
</g></g><g transform="translate(629,518) scale(0.37,0.37)"><g transform="" style="fill: rgb(255, 255, 255);">
<g>
	<circle cx="50" cy="50" r="30"/>
</g>
</g></g><g transform="translate(740,518) scale(0.37,0.37)"><g transform="" style="fill: rgb(255, 255, 255);">
<g>
	<circle cx="50" cy="50" r="30"/>
</g>
</g></g><g transform="translate(814,518) scale(0.37,0.37)"><g transform="" style="fill: rgb(255, 255, 255);">
<g>
	<circle cx="50" cy="50" r="30"/>
</g>
</g></g><g transform="translate(851,518) scale(0.37,0.37)"><g transform="" style="fill: rgb(255, 255, 255);">
<g>
	<circle cx="50" cy="50" r="30"/>
</g>
</g></g><g transform="translate(0,555) scale(0.37,0.37)"><g transform="" style="fill: rgb(255, 255, 255);">
<g>
	<circle cx="50" cy="50" r="30"/>
</g>
</g></g><g transform="translate(111,555) scale(0.37,0.37)"><g transform="" style="fill: rgb(255, 255, 255);">
<g>
	<circle cx="50" cy="50" r="30"/>
</g>
</g></g><g transform="translate(259,555) scale(0.37,0.37)"><g transform="" style="fill: rgb(255, 255, 255);">
<g>
	<circle cx="50" cy="50" r="30"/>
</g>
</g></g><g transform="translate(333,555) scale(0.37,0.37)"><g transform="" style="fill: rgb(255, 255, 255);">
<g>
	<circle cx="50" cy="50" r="30"/>
</g>
</g></g><g transform="translate(370,555) scale(0.37,0.37)"><g transform="" style="fill: rgb(255, 255, 255);">
<g>
	<circle cx="50" cy="50" r="30"/>
</g>
</g></g><g transform="translate(444,555) scale(0.37,0.37)"><g transform="" style="fill: rgb(255, 255, 255);">
<g>
	<circle cx="50" cy="50" r="30"/>
</g>
</g></g><g transform="translate(518,555) scale(0.37,0.37)"><g transform="" style="fill: rgb(255, 255, 255);">
<g>
	<circle cx="50" cy="50" r="30"/>
</g>
</g></g><g transform="translate(555,555) scale(0.37,0.37)"><g transform="" style="fill: rgb(255, 255, 255);">
<g>
	<circle cx="50" cy="50" r="30"/>
</g>
</g></g><g transform="translate(629,555) scale(0.37,0.37)"><g transform="" style="fill: rgb(255, 255, 255);">
<g>
	<circle cx="50" cy="50" r="30"/>
</g>
</g></g><g transform="translate(666,555) scale(0.37,0.37)"><g transform="" style="fill: rgb(255, 255, 255);">
<g>
	<circle cx="50" cy="50" r="30"/>
</g>
</g></g><g transform="translate(703,555) scale(0.37,0.37)"><g transform="" style="fill: rgb(255, 255, 255);">
<g>
	<circle cx="50" cy="50" r="30"/>
</g>
</g></g><g transform="translate(740,555) scale(0.37,0.37)"><g transform="" style="fill: rgb(255, 255, 255);">
<g>
	<circle cx="50" cy="50" r="30"/>
</g>
</g></g><g transform="translate(888,555) scale(0.37,0.37)"><g transform="" style="fill: rgb(255, 255, 255);">
<g>
	<circle cx="50" cy="50" r="30"/>
</g>
</g></g><g transform="translate(111,592) scale(0.37,0.37)"><g transform="" style="fill: rgb(255, 255, 255);">
<g>
	<circle cx="50" cy="50" r="30"/>
</g>
</g></g><g transform="translate(148,592) scale(0.37,0.37)"><g transform="" style="fill: rgb(255, 255, 255);">
<g>
	<circle cx="50" cy="50" r="30"/>
</g>
</g></g><g transform="translate(185,592) scale(0.37,0.37)"><g transform="" style="fill: rgb(255, 255, 255);">
<g>
	<circle cx="50" cy="50" r="30"/>
</g>
</g></g><g transform="translate(222,592) scale(0.37,0.37)"><g transform="" style="fill: rgb(255, 255, 255);">
<g>
	<circle cx="50" cy="50" r="30"/>
</g>
</g></g><g transform="translate(333,592) scale(0.37,0.37)"><g transform="" style="fill: rgb(255, 255, 255);">
<g>
	<circle cx="50" cy="50" r="30"/>
</g>
</g></g><g transform="translate(370,592) scale(0.37,0.37)"><g transform="" style="fill: rgb(255, 255, 255);">
<g>
	<circle cx="50" cy="50" r="30"/>
</g>
</g></g><g transform="translate(407,592) scale(0.37,0.37)"><g transform="" style="fill: rgb(255, 255, 255);">
<g>
	<circle cx="50" cy="50" r="30"/>
</g>
</g></g><g transform="translate(481,592) scale(0.37,0.37)"><g transform="" style="fill: rgb(255, 255, 255);">
<g>
	<circle cx="50" cy="50" r="30"/>
</g>
</g></g><g transform="translate(555,592) scale(0.37,0.37)"><g transform="" style="fill: rgb(255, 255, 255);">
<g>
	<circle cx="50" cy="50" r="30"/>
</g>
</g></g><g transform="translate(592,592) scale(0.37,0.37)"><g transform="" style="fill: rgb(255, 255, 255);">
<g>
	<circle cx="50" cy="50" r="30"/>
</g>
</g></g><g transform="translate(629,592) scale(0.37,0.37)"><g transform="" style="fill: rgb(255, 255, 255);">
<g>
	<circle cx="50" cy="50" r="30"/>
</g>
</g></g><g transform="translate(666,592) scale(0.37,0.37)"><g transform="" style="fill: rgb(255, 255, 255);">
<g>
	<circle cx="50" cy="50" r="30"/>
</g>
</g></g><g transform="translate(703,592) scale(0.37,0.37)"><g transform="" style="fill: rgb(255, 255, 255);">
<g>
	<circle cx="50" cy="50" r="30"/>
</g>
</g></g><g transform="translate(740,592) scale(0.37,0.37)"><g transform="" style="fill: rgb(255, 255, 255);">
<g>
	<circle cx="50" cy="50" r="30"/>
</g>
</g></g><g transform="translate(777,592) scale(0.37,0.37)"><g transform="" style="fill: rgb(255, 255, 255);">
<g>
	<circle cx="50" cy="50" r="30"/>
</g>
</g></g><g transform="translate(814,592) scale(0.37,0.37)"><g transform="" style="fill: rgb(255, 255, 255);">
<g>
	<circle cx="50" cy="50" r="30"/>
</g>
</g></g><g transform="translate(851,592) scale(0.37,0.37)"><g transform="" style="fill: rgb(255, 255, 255);">
<g>
	<circle cx="50" cy="50" r="30"/>
</g>
</g></g><g transform="translate(888,592) scale(0.37,0.37)"><g transform="" style="fill: rgb(255, 255, 255);">
<g>
	<circle cx="50" cy="50" r="30"/>
</g>
</g></g><g transform="translate(296,629) scale(0.37,0.37)"><g transform="" style="fill: rgb(255, 255, 255);">
<g>
	<circle cx="50" cy="50" r="30"/>
</g>
</g></g><g transform="translate(333,629) scale(0.37,0.37)"><g transform="" style="fill: rgb(255, 255, 255);">
<g>
	<circle cx="50" cy="50" r="30"/>
</g>
</g></g><g transform="translate(444,629) scale(0.37,0.37)"><g transform="" style="fill: rgb(255, 255, 255);">
<g>
	<circle cx="50" cy="50" r="30"/>
</g>
</g></g><g transform="translate(592,629) scale(0.37,0.37)"><g transform="" style="fill: rgb(255, 255, 255);">
<g>
	<circle cx="50" cy="50" r="30"/>
</g>
</g></g><g transform="translate(740,629) scale(0.37,0.37)"><g transform="" style="fill: rgb(255, 255, 255);">
<g>
	<circle cx="50" cy="50" r="30"/>
</g>
</g></g><g transform="translate(814,629) scale(0.37,0.37)"><g transform="" style="fill: rgb(255, 255, 255);">
<g>
	<circle cx="50" cy="50" r="30"/>
</g>
</g></g><g transform="translate(888,629) scale(0.37,0.37)"><g transform="" style="fill: rgb(255, 255, 255);">
<g>
	<circle cx="50" cy="50" r="30"/>
</g>
</g></g><g transform="translate(296,666) scale(0.37,0.37)"><g transform="" style="fill: rgb(255, 255, 255);">
<g>
	<circle cx="50" cy="50" r="30"/>
</g>
</g></g><g transform="translate(370,666) scale(0.37,0.37)"><g transform="" style="fill: rgb(255, 255, 255);">
<g>
	<circle cx="50" cy="50" r="30"/>
</g>
</g></g><g transform="translate(407,666) scale(0.37,0.37)"><g transform="" style="fill: rgb(255, 255, 255);">
<g>
	<circle cx="50" cy="50" r="30"/>
</g>
</g></g><g transform="translate(444,666) scale(0.37,0.37)"><g transform="" style="fill: rgb(255, 255, 255);">
<g>
	<circle cx="50" cy="50" r="30"/>
</g>
</g></g><g transform="translate(518,666) scale(0.37,0.37)"><g transform="" style="fill: rgb(255, 255, 255);">
<g>
	<circle cx="50" cy="50" r="30"/>
</g>
</g></g><g transform="translate(592,666) scale(0.37,0.37)"><g transform="" style="fill: rgb(255, 255, 255);">
<g>
	<circle cx="50" cy="50" r="30"/>
</g>
</g></g><g transform="translate(666,666) scale(0.37,0.37)"><g transform="" style="fill: rgb(255, 255, 255);">
<g>
	<circle cx="50" cy="50" r="30"/>
</g>
</g></g><g transform="translate(740,666) scale(0.37,0.37)"><g transform="" style="fill: rgb(255, 255, 255);">
<g>
	<circle cx="50" cy="50" r="30"/>
</g>
</g></g><g transform="translate(814,666) scale(0.37,0.37)"><g transform="" style="fill: rgb(255, 255, 255);">
<g>
	<circle cx="50" cy="50" r="30"/>
</g>
</g></g><g transform="translate(851,666) scale(0.37,0.37)"><g transform="" style="fill: rgb(255, 255, 255);">
<g>
	<circle cx="50" cy="50" r="30"/>
</g>
</g></g><g transform="translate(888,666) scale(0.37,0.37)"><g transform="" style="fill: rgb(255, 255, 255);">
<g>
	<circle cx="50" cy="50" r="30"/>
</g>
</g></g><g transform="translate(296,703) scale(0.37,0.37)"><g transform="" style="fill: rgb(255, 255, 255);">
<g>
	<circle cx="50" cy="50" r="30"/>
</g>
</g></g><g transform="translate(370,703) scale(0.37,0.37)"><g transform="" style="fill: rgb(255, 255, 255);">
<g>
	<circle cx="50" cy="50" r="30"/>
</g>
</g></g><g transform="translate(444,703) scale(0.37,0.37)"><g transform="" style="fill: rgb(255, 255, 255);">
<g>
	<circle cx="50" cy="50" r="30"/>
</g>
</g></g><g transform="translate(555,703) scale(0.37,0.37)"><g transform="" style="fill: rgb(255, 255, 255);">
<g>
	<circle cx="50" cy="50" r="30"/>
</g>
</g></g><g transform="translate(592,703) scale(0.37,0.37)"><g transform="" style="fill: rgb(255, 255, 255);">
<g>
	<circle cx="50" cy="50" r="30"/>
</g>
</g></g><g transform="translate(740,703) scale(0.37,0.37)"><g transform="" style="fill: rgb(255, 255, 255);">
<g>
	<circle cx="50" cy="50" r="30"/>
</g>
</g></g><g transform="translate(851,703) scale(0.37,0.37)"><g transform="" style="fill: rgb(255, 255, 255);">
<g>
	<circle cx="50" cy="50" r="30"/>
</g>
</g></g><g transform="translate(888,703) scale(0.37,0.37)"><g transform="" style="fill: rgb(255, 255, 255);">
<g>
	<circle cx="50" cy="50" r="30"/>
</g>
</g></g><g transform="translate(333,740) scale(0.37,0.37)"><g transform="" style="fill: rgb(255, 255, 255);">
<g>
	<circle cx="50" cy="50" r="30"/>
</g>
</g></g><g transform="translate(407,740) scale(0.37,0.37)"><g transform="" style="fill: rgb(255, 255, 255);">
<g>
	<circle cx="50" cy="50" r="30"/>
</g>
</g></g><g transform="translate(444,740) scale(0.37,0.37)"><g transform="" style="fill: rgb(255, 255, 255);">
<g>
	<circle cx="50" cy="50" r="30"/>
</g>
</g></g><g transform="translate(481,740) scale(0.37,0.37)"><g transform="" style="fill: rgb(255, 255, 255);">
<g>
	<circle cx="50" cy="50" r="30"/>
</g>
</g></g><g transform="translate(592,740) scale(0.37,0.37)"><g transform="" style="fill: rgb(255, 255, 255);">
<g>
	<circle cx="50" cy="50" r="30"/>
</g>
</g></g><g transform="translate(629,740) scale(0.37,0.37)"><g transform="" style="fill: rgb(255, 255, 255);">
<g>
	<circle cx="50" cy="50" r="30"/>
</g>
</g></g><g transform="translate(666,740) scale(0.37,0.37)"><g transform="" style="fill: rgb(255, 255, 255);">
<g>
	<circle cx="50" cy="50" r="30"/>
</g>
</g></g><g transform="translate(703,740) scale(0.37,0.37)"><g transform="" style="fill: rgb(255, 255, 255);">
<g>
	<circle cx="50" cy="50" r="30"/>
</g>
</g></g><g transform="translate(740,740) scale(0.37,0.37)"><g transform="" style="fill: rgb(255, 255, 255);">
<g>
	<circle cx="50" cy="50" r="30"/>
</g>
</g></g><g transform="translate(777,740) scale(0.37,0.37)"><g transform="" style="fill: rgb(255, 255, 255);">
<g>
	<circle cx="50" cy="50" r="30"/>
</g>
</g></g><g transform="translate(851,740) scale(0.37,0.37)"><g transform="" style="fill: rgb(255, 255, 255);">
<g>
	<circle cx="50" cy="50" r="30"/>
</g>
</g></g><g transform="translate(296,777) scale(0.37,0.37)"><g transform="" style="fill: rgb(255, 255, 255);">
<g>
	<circle cx="50" cy="50" r="30"/>
</g>
</g></g><g transform="translate(444,777) scale(0.37,0.37)"><g transform="" style="fill: rgb(255, 255, 255);">
<g>
	<circle cx="50" cy="50" r="30"/>
</g>
</g></g><g transform="translate(481,777) scale(0.37,0.37)"><g transform="" style="fill: rgb(255, 255, 255);">
<g>
	<circle cx="50" cy="50" r="30"/>
</g>
</g></g><g transform="translate(555,777) scale(0.37,0.37)"><g transform="" style="fill: rgb(255, 255, 255);">
<g>
	<circle cx="50" cy="50" r="30"/>
</g>
</g></g><g transform="translate(629,777) scale(0.37,0.37)"><g transform="" style="fill: rgb(255, 255, 255);">
<g>
	<circle cx="50" cy="50" r="30"/>
</g>
</g></g><g transform="translate(666,777) scale(0.37,0.37)"><g transform="" style="fill: rgb(255, 255, 255);">
<g>
	<circle cx="50" cy="50" r="30"/>
</g>
</g></g><g transform="translate(740,777) scale(0.37,0.37)"><g transform="" style="fill: rgb(255, 255, 255);">
<g>
	<circle cx="50" cy="50" r="30"/>
</g>
</g></g><g transform="translate(777,777) scale(0.37,0.37)"><g transform="" style="fill: rgb(255, 255, 255);">
<g>
	<circle cx="50" cy="50" r="30"/>
</g>
</g></g><g transform="translate(814,777) scale(0.37,0.37)"><g transform="" style="fill: rgb(255, 255, 255);">
<g>
	<circle cx="50" cy="50" r="30"/>
</g>
</g></g><g transform="translate(851,777) scale(0.37,0.37)"><g transform="" style="fill: rgb(255, 255, 255);">
<g>
	<circle cx="50" cy="50" r="30"/>
</g>
</g></g><g transform="translate(888,777) scale(0.37,0.37)"><g transform="" style="fill: rgb(255, 255, 255);">
<g>
	<circle cx="50" cy="50" r="30"/>
</g>
</g></g><g transform="translate(296,814) scale(0.37,0.37)"><g transform="" style="fill: rgb(255, 255, 255);">
<g>
	<circle cx="50" cy="50" r="30"/>
</g>
</g></g><g transform="translate(333,814) scale(0.37,0.37)"><g transform="" style="fill: rgb(255, 255, 255);">
<g>
	<circle cx="50" cy="50" r="30"/>
</g>
</g></g><g transform="translate(407,814) scale(0.37,0.37)"><g transform="" style="fill: rgb(255, 255, 255);">
<g>
	<circle cx="50" cy="50" r="30"/>
</g>
</g></g><g transform="translate(444,814) scale(0.37,0.37)"><g transform="" style="fill: rgb(255, 255, 255);">
<g>
	<circle cx="50" cy="50" r="30"/>
</g>
</g></g><g transform="translate(481,814) scale(0.37,0.37)"><g transform="" style="fill: rgb(255, 255, 255);">
<g>
	<circle cx="50" cy="50" r="30"/>
</g>
</g></g><g transform="translate(555,814) scale(0.37,0.37)"><g transform="" style="fill: rgb(255, 255, 255);">
<g>
	<circle cx="50" cy="50" r="30"/>
</g>
</g></g><g transform="translate(592,814) scale(0.37,0.37)"><g transform="" style="fill: rgb(255, 255, 255);">
<g>
	<circle cx="50" cy="50" r="30"/>
</g>
</g></g><g transform="translate(629,814) scale(0.37,0.37)"><g transform="" style="fill: rgb(255, 255, 255);">
<g>
	<circle cx="50" cy="50" r="30"/>
</g>
</g></g><g transform="translate(666,814) scale(0.37,0.37)"><g transform="" style="fill: rgb(255, 255, 255);">
<g>
	<circle cx="50" cy="50" r="30"/>
</g>
</g></g><g transform="translate(740,814) scale(0.37,0.37)"><g transform="" style="fill: rgb(255, 255, 255);">
<g>
	<circle cx="50" cy="50" r="30"/>
</g>
</g></g><g transform="translate(814,814) scale(0.37,0.37)"><g transform="" style="fill: rgb(255, 255, 255);">
<g>
	<circle cx="50" cy="50" r="30"/>
</g>
</g></g><g transform="translate(851,814) scale(0.37,0.37)"><g transform="" style="fill: rgb(255, 255, 255);">
<g>
	<circle cx="50" cy="50" r="30"/>
</g>
</g></g><g transform="translate(333,851) scale(0.37,0.37)"><g transform="" style="fill: rgb(255, 255, 255);">
<g>
	<circle cx="50" cy="50" r="30"/>
</g>
</g></g><g transform="translate(370,851) scale(0.37,0.37)"><g transform="" style="fill: rgb(255, 255, 255);">
<g>
	<circle cx="50" cy="50" r="30"/>
</g>
</g></g><g transform="translate(740,851) scale(0.37,0.37)"><g transform="" style="fill: rgb(255, 255, 255);">
<g>
	<circle cx="50" cy="50" r="30"/>
</g>
</g></g><g transform="translate(814,851) scale(0.37,0.37)"><g transform="" style="fill: rgb(255, 255, 255);">
<g>
	<circle cx="50" cy="50" r="30"/>
</g>
</g></g><g transform="translate(296,888) scale(0.37,0.37)"><g transform="" style="fill: rgb(255, 255, 255);">
<g>
	<circle cx="50" cy="50" r="30"/>
</g>
</g></g><g transform="translate(333,888) scale(0.37,0.37)"><g transform="" style="fill: rgb(255, 255, 255);">
<g>
	<circle cx="50" cy="50" r="30"/>
</g>
</g></g><g transform="translate(444,888) scale(0.37,0.37)"><g transform="" style="fill: rgb(255, 255, 255);">
<g>
	<circle cx="50" cy="50" r="30"/>
</g>
</g></g><g transform="translate(518,888) scale(0.37,0.37)"><g transform="" style="fill: rgb(255, 255, 255);">
<g>
	<circle cx="50" cy="50" r="30"/>
</g>
</g></g><g transform="translate(629,888) scale(0.37,0.37)"><g transform="" style="fill: rgb(255, 255, 255);">
<g>
	<circle cx="50" cy="50" r="30"/>
</g>
</g></g><g transform="translate(703,888) scale(0.37,0.37)"><g transform="" style="fill: rgb(255, 255, 255);">
<g>
	<circle cx="50" cy="50" r="30"/>
</g>
</g></g><g transform="translate(740,888) scale(0.37,0.37)"><g transform="" style="fill: rgb(255, 255, 255);">
<g>
	<circle cx="50" cy="50" r="30"/>
</g>
</g></g><g transform="translate(777,888) scale(0.37,0.37)"><g transform="" style="fill: rgb(255, 255, 255);">
<g>
	<circle cx="50" cy="50" r="30"/>
</g>
</g></g><g transform="translate(814,888) scale(0.37,0.37)"><g transform="" style="fill: rgb(255, 255, 255);">
<g>
	<circle cx="50" cy="50" r="30"/>
</g>
</g></g><g transform="translate(851,888) scale(0.37,0.37)"><g transform="" style="fill: rgb(255, 255, 255);">
<g>
	<circle cx="50" cy="50" r="30"/>
</g>
</g></g><g transform="translate(888,888) scale(0.37,0.37)"><g transform="" style="fill: rgb(255, 255, 255);">
<g>
	<circle cx="50" cy="50" r="30"/>
</g>
</g></g></g></mask></defs></g><rect x="0" y="0" width="925" height="925" fill="url(#grad)" mask="url(#gmask)" /><g transform="translate(0,0) scale(2.59, 2.59)"><g transform=" translate(0,100) scale(1,-1) " style="fill: rgb(117, 62, 153);">
<g>
</g>
<g>
	<path fill="none" d="M15.02,34.145L15.004,85H66.25C76.589,85,85,76.414,85,65.86V15H33.78C23.436,15,15.02,23.586,15.02,34.145z"
		/>
	<path d="M66.25,0H33.78C15.16,0,0.02,15.32,0.02,34.14L0,100h66.25C84.86,100,100,84.68,100,65.86V34.14V0H66.25z M85,65.86
		C85,76.414,76.589,85,66.25,85H15.004l0.016-50.855C15.02,23.586,23.436,15,33.78,15H85V65.86z"/>
</g>
</g></g><g transform="translate(666,0) scale(2.59, 2.59)"><g transform="" style="fill: rgb(117, 62, 153);">
<g>
</g>
<g>
	<path fill="none" d="M15.02,34.145L15.004,85H66.25C76.589,85,85,76.414,85,65.86V15H33.78C23.436,15,15.02,23.586,15.02,34.145z"
		/>
	<path d="M66.25,0H33.78C15.16,0,0.02,15.32,0.02,34.14L0,100h66.25C84.86,100,100,84.68,100,65.86V34.14V0H66.25z M85,65.86
		C85,76.414,76.589,85,66.25,85H15.004l0.016-50.855C15.02,23.586,23.436,15,33.78,15H85V65.86z"/>
</g>
</g></g><g transform="translate(0,666) scale(2.59, 2.59)"><g transform="" style="fill: rgb(117, 62, 153);">
<g>
</g>
<g>
	<path fill="none" d="M15.02,34.145L15.004,85H66.25C76.589,85,85,76.414,85,65.86V15H33.78C23.436,15,15.02,23.586,15.02,34.145z"
		/>
	<path d="M66.25,0H33.78C15.16,0,0.02,15.32,0.02,34.14L0,100h66.25C84.86,100,100,84.68,100,65.86V34.14V0H66.25z M85,65.86
		C85,76.414,76.589,85,66.25,85H15.004l0.016-50.855C15.02,23.586,23.436,15,33.78,15H85V65.86z"/>
</g>
</g></g><g transform="translate(74,74) scale(1.11, 1.11)"><g transform="" style="fill: rgb(2, 119, 189);">
<path d="M99,50c0-7.839-5.42-14.394-12.713-16.17C93.58,32.055,99,25.499,99,17.66C99,8.458,91.541,1,82.34,1
	c-7.838,0-14.395,5.421-16.17,12.713C64.395,6.421,57.838,1,50,1c-7.839,0-14.395,5.421-16.17,12.712C32.055,6.421,25.499,1,17.66,1
	C8.458,1,1,8.458,1,17.66c0,7.839,5.421,14.395,12.713,16.17C6.421,35.606,1,42.161,1,50c0,7.838,5.421,14.395,12.713,16.17
	C6.421,67.945,1,74.502,1,82.34C1,91.541,8.458,99,17.66,99c7.839,0,14.395-5.42,16.17-12.713C35.605,93.58,42.161,99,50,99
	c7.838,0,14.395-5.42,16.17-12.713C67.945,93.58,74.502,99,82.34,99C91.541,99,99,91.541,99,82.34c0-7.838-5.42-14.395-12.713-16.17
	C93.58,64.395,99,57.838,99,50z"/>
</g></g><g transform="translate(740,74) scale(1.11, 1.11)"><g transform="" style="fill: rgb(2, 119, 189);">
<path d="M99,50c0-7.839-5.42-14.394-12.713-16.17C93.58,32.055,99,25.499,99,17.66C99,8.458,91.541,1,82.34,1
	c-7.838,0-14.395,5.421-16.17,12.713C64.395,6.421,57.838,1,50,1c-7.839,0-14.395,5.421-16.17,12.712C32.055,6.421,25.499,1,17.66,1
	C8.458,1,1,8.458,1,17.66c0,7.839,5.421,14.395,12.713,16.17C6.421,35.606,1,42.161,1,50c0,7.838,5.421,14.395,12.713,16.17
	C6.421,67.945,1,74.502,1,82.34C1,91.541,8.458,99,17.66,99c7.839,0,14.395-5.42,16.17-12.713C35.605,93.58,42.161,99,50,99
	c7.838,0,14.395-5.42,16.17-12.713C67.945,93.58,74.502,99,82.34,99C91.541,99,99,91.541,99,82.34c0-7.838-5.42-14.395-12.713-16.17
	C93.58,64.395,99,57.838,99,50z"/>
</g></g><g transform="translate(74,740) scale(1.11, 1.11)"><g transform="" style="fill: rgb(2, 119, 189);">
<path d="M99,50c0-7.839-5.42-14.394-12.713-16.17C93.58,32.055,99,25.499,99,17.66C99,8.458,91.541,1,82.34,1
	c-7.838,0-14.395,5.421-16.17,12.713C64.395,6.421,57.838,1,50,1c-7.839,0-14.395,5.421-16.17,12.712C32.055,6.421,25.499,1,17.66,1
	C8.458,1,1,8.458,1,17.66c0,7.839,5.421,14.395,12.713,16.17C6.421,35.606,1,42.161,1,50c0,7.838,5.421,14.395,12.713,16.17
	C6.421,67.945,1,74.502,1,82.34C1,91.541,8.458,99,17.66,99c7.839,0,14.395-5.42,16.17-12.713C35.605,93.58,42.161,99,50,99
	c7.838,0,14.395-5.42,16.17-12.713C67.945,93.58,74.502,99,82.34,99C91.541,99,99,91.541,99,82.34c0-7.838-5.42-14.395-12.713-16.17
	C93.58,64.395,99,57.838,99,50z"/>
</g></g></g></svg>